<?xml version="1.0" encoding="UTF-8" standalone="no"?>
<!-- Created with Inkscape (http://www.inkscape.org/) -->

<svg
   width="174.38437mm"
   height="70.277046mm"
   viewBox="0 0 174.38437 70.277046"
   version="1.1"
   id="svg1"
   xml:space="preserve"
   inkscape:version="1.4 (86a8ad7, 2024-10-11)"
   sodipodi:docname="risba.svg"
   xmlns:inkscape="http://www.inkscape.org/namespaces/inkscape"
   xmlns:sodipodi="http://sodipodi.sourceforge.net/DTD/sodipodi-0.dtd"
   xmlns="http://www.w3.org/2000/svg"
   xmlns:svg="http://www.w3.org/2000/svg"><sodipodi:namedview
     id="namedview1"
     pagecolor="#ffffff"
     bordercolor="#000000"
     borderopacity="0.25"
     inkscape:showpageshadow="2"
     inkscape:pageopacity="0.0"
     inkscape:pagecheckerboard="0"
     inkscape:deskcolor="#d1d1d1"
     inkscape:document-units="mm"
     inkscape:zoom="0.5"
     inkscape:cx="636"
     inkscape:cy="539"
     inkscape:window-width="1600"
     inkscape:window-height="837"
     inkscape:window-x="-8"
     inkscape:window-y="-8"
     inkscape:window-maximized="1"
     inkscape:current-layer="svg1" /><defs
     id="defs1" /><rect
     style="opacity:0.99;fill:#cccccc;fill-opacity:1;stroke:#000000;stroke-width:0;stroke-opacity:1"
     id="rect10"
     width="174.38437"
     height="70.277039"
     x="-3.7177e-07"
     y="2.9196863e-06"
     inkscape:export-filename="etika_vrste_hekerjev.png"
     inkscape:export-xdpi="96"
     inkscape:export-ydpi="96" /><path
     style="opacity:0.99;fill:#333333;stroke:#000000;stroke-width:0"
     d="m 148.54113,32.535655 c 1.88094,0.45351 4.31759,1.55522 6.17485,2.46823 1.10612,0.54376 1.6287,1.99096 2.10473,3.12786 1.77066,4.22892 3.86947,9.02114 4.79409,13.85611 0.22571,1.18026 0.24147,2.65475 -0.46772,3.6248 -0.57611,0.78803 -1.56705,1.46359 -2.54321,1.46161 -10.92051,-0.0222 -24.42598,-0.32052 -35.72184,-0.11693 -1.16014,0.0209 -2.38932,-0.73486 -3.04016,-1.69547 -0.59523,-0.87851 -0.71842,-2.14195 -0.40925,-3.15709 1.35168,-4.43829 2.90924,-10.05135 5.26181,-14.49921 0.5507,-1.04119 1.28082,-2.03916 2.22165,-2.74783 1.75783,-1.32405 3.93734,-2.04708 6.09713,-2.46941 5.45144,-1.06597 10.12797,-1.15461 15.52792,0.14735 z"
     id="path10-9"
     sodipodi:nodetypes="ssssssssssssss" /><path
     style="opacity:0.99;fill:#000000;stroke:#000000;stroke-width:0"
     d="m 159.82516,51.349545 c 0,0 -1.19987,-0.85921 -1.79181,-1.08941 -1.07537,-0.41822 -2.06788,-0.29769 -3.01508,-0.10404 -0.50902,0.10407 -1.61898,0.73733 -1.61898,0.73733 l 0.31811,0.55591 c 0,0 0.84904,-0.87159 1.33224,-1.02302 0.80854,-0.25337 1.72958,-0.25005 2.66548,-0.0357 0.68898,0.15782 2.11008,0.959 2.11008,0.959 z"
     id="path8-2-5"
     sodipodi:nodetypes="cssccsscc" /><path
     style="opacity:0.99;fill:#4d4d4d;stroke:#000000;stroke-width:0"
     d="m 134.3722,26.650085 c 0,0 -0.95648,0.28448 -1.2919,0.64079 -0.31284,0.33233 -0.73661,1.06459 -0.93016,1.47793 -0.37006,0.79028 -0.70621,1.56513 -0.88883,2.41843 -0.1155,0.53968 -0.0827,1.65363 -0.0827,1.65363 0,0 0.61528,-0.14638 1.22989,-0.0517 0.64026,0.0986 0.96878,0.61834 1.45726,1.04385 0.43355,0.37767 0.58792,0.69674 1.07485,1.00251 0.70891,0.44516 1.67608,0.8062 2.44944,1.12654 0.36457,0.15101 0.71649,0.35843 1.04385,0.57877 0.73601,0.49539 1.34531,1.72265 2.2324,1.73631 0.9177,0.0141 1.21742,-1.20688 1.99469,-1.69497 0.89951,-0.56485 1.87084,-0.95254 2.8215,-1.42626 0.54156,-0.26986 1.14576,-0.47899 1.57095,-0.90949 0.35553,-0.35997 0.47245,-0.8273 0.87568,-1.13289 0.4182,-0.31694 0.77966,-0.42311 1.29574,-0.32822 0.26315,0.0484 0.76377,0.22089 0.76377,0.22089 0,0 0.0996,-1.12399 -0.007,-1.68035 -0.20684,-1.07862 -0.52049,-2.22929 -1.10911,-3.15651 -0.26132,-0.41165 -0.65666,-0.74146 -1.07486,-0.99218 -0.2878,-0.17255 -1.02391,-0.53535 -1.02391,-0.53535 0,0 -0.48037,2.88519 -1.33251,3.88395 -1.146,1.34319 -2.82494,2.7248 -4.58881,2.6458 -1.86762,-0.0837 -3.27921,-1.89042 -4.58882,-3.22457 -0.89692,-0.91373 -1.89134,-3.29693 -1.89134,-3.29693 z"
     id="path7-4"
     sodipodi:nodetypes="cssscssssssssssscssscsssc" /><path
     style="color:#000000;font-style:normal;font-variant:normal;font-weight:normal;font-stretch:normal;font-size:medium;line-height:normal;font-family:sans-serif;font-variant-ligatures:normal;font-variant-position:normal;font-variant-caps:normal;font-variant-numeric:normal;font-variant-alternates:normal;font-variant-east-asian:normal;font-feature-settings:normal;font-variation-settings:normal;text-indent:0;text-align:start;text-decoration-line:none;text-decoration-style:solid;text-decoration-color:#000000;letter-spacing:normal;word-spacing:normal;text-transform:none;writing-mode:lr-tb;direction:ltr;text-orientation:mixed;dominant-baseline:auto;baseline-shift:baseline;text-anchor:start;white-space:normal;shape-padding:0;shape-margin:0;inline-size:0;clip-rule:nonzero;display:inline;overflow:visible;visibility:visible;isolation:auto;mix-blend-mode:normal;color-interpolation:sRGB;color-interpolation-filters:linearRGB;solid-color:#000000;solid-opacity:1;vector-effect:none;fill:#ffccaa;fill-opacity:1;fill-rule:nonzero;stroke:none;stroke-linecap:butt;stroke-linejoin:miter;stroke-miterlimit:4;stroke-dasharray:none;stroke-dashoffset:0;stroke-opacity:1;-inkscape-stroke:none;color-rendering:auto;image-rendering:auto;shape-rendering:auto;text-rendering:auto;enable-background:accumulate;stop-color:#000000"
     d="m 133.97784,25.947055 c 0,0 1.09886,3.8875 2.31508,5.33295 1.09014,1.29561 2.49442,2.39868 4.42345,2.85251 1.63557,-0.21527 3.66491,-2.07987 4.79552,-3.43128 1.15294,-1.3781 1.48827,-4.58882 1.48827,-4.58882 0,0 -3.74185,0.63622 -5.87038,0.62011 -2.22816,-0.0169 -7.15194,-0.78547 -7.15194,-0.78547 z"
     id="path4-3"
     sodipodi:nodetypes="cscscsc" /><path
     style="opacity:0.99;fill:#000000;fill-opacity:1;stroke:#000000;stroke-width:0"
     d="m 134.52565,25.996755 c 0,0 0.53907,1.4146 1.28156,2.14972 0.46534,0.46072 1.91621,0.77941 2.64581,0.37207 0.30629,-0.171 0.83184,-0.98592 1.15754,-1.11621 0.52473,-0.2099 1.12358,-0.23747 1.65363,-0.0414 0.63381,0.23448 1.01251,0.94385 1.65362,1.15755 0.64112,0.2137 1.88182,0.23089 2.52179,-0.33074 0.68773,-0.60355 1.24022,-2.04636 1.24022,-2.04636 0,0 -3.93549,0.37817 -6.07708,0.43408 -1.93874,0.0506 -6.07709,-0.57873 -6.07709,-0.57873 z"
     id="path5-1"
     sodipodi:nodetypes="csssssscscc" /><path
     style="opacity:0.99;fill:#000000;fill-opacity:1;stroke:#000000;stroke-width:0;stroke-opacity:1"
     d="m 138.27773,30.394975 c 0,0 0.44625,0.38516 0.80614,0.54777 0.29681,0.1341 1.03861,0.2417 1.36425,0.24803 0.51146,0.01 0.85005,-0.0593 1.33323,-0.22736 0.34268,-0.11915 0.80615,-0.64079 0.80615,-0.64079 0,0 -0.68946,0.44941 -1.03352,0.54777 -0.37803,0.10808 -0.58867,0.15725 -0.98184,0.15502 -0.38685,-0.002 -0.96641,-0.0425 -1.33324,-0.16536 -0.37855,-0.12681 -0.96117,-0.46508 -0.96117,-0.46508 z"
     id="path6-2"
     sodipodi:nodetypes="cssscsssc" /><path
     style="opacity:0.99;fill:#000000;stroke:#000000;stroke-width:0"
     d="m 121.62504,51.008575 c 0,0 0.72063,-0.6602 1.16929,-0.81851 0.81508,-0.2876 1.7253,-0.24205 2.58705,-0.17539 0.46313,0.0358 1.63701,0.43849 1.63701,0.43849 l -0.1305,0.33115 c 0,0 -0.9511,-0.45719 -1.40419,-0.52117 -0.75815,-0.10706 -1.54708,-0.0628 -2.29473,0.10232 -0.55041,0.12155 -1.56393,0.64311 -1.56393,0.64311 z"
     id="path8-3"
     sodipodi:nodetypes="cssccssc" /><path
     style="color:#000000;font-style:normal;font-variant:normal;font-weight:normal;font-stretch:normal;font-size:medium;line-height:normal;font-family:sans-serif;font-variant-ligatures:normal;font-variant-position:normal;font-variant-caps:normal;font-variant-numeric:normal;font-variant-alternates:normal;font-variant-east-asian:normal;font-feature-settings:normal;font-variation-settings:normal;text-indent:0;text-align:start;text-decoration-line:none;text-decoration-style:solid;text-decoration-color:#000000;letter-spacing:normal;word-spacing:normal;text-transform:none;writing-mode:lr-tb;direction:ltr;text-orientation:mixed;dominant-baseline:auto;baseline-shift:baseline;text-anchor:start;white-space:normal;shape-padding:0;shape-margin:0;inline-size:0;clip-rule:nonzero;display:inline;overflow:visible;visibility:visible;isolation:auto;mix-blend-mode:normal;color-interpolation:sRGB;color-interpolation-filters:linearRGB;solid-color:#000000;solid-opacity:1;fill:#808080;fill-opacity:1;fill-rule:nonzero;stroke:#000000;stroke-width:0.1;stroke-linecap:butt;stroke-linejoin:miter;stroke-miterlimit:4;stroke-dasharray:none;stroke-dashoffset:0;stroke-opacity:1;color-rendering:auto;image-rendering:auto;shape-rendering:auto;text-rendering:auto;enable-background:accumulate;stop-color:#000000"
     d="m 133.2512,18.172095 c -1.37474,0.18776 -2.96167,0.7673 -4.34078,1.48827 -1.26358,0.66058 -2.6099,1.67491 -1.94301,2.93518 1.79201,3.38645 8.96918,4.07437 13.60109,4.13407 4.53298,0.0584 10.12575,-0.76421 13.02231,-3.30725 0.51871,-0.4554 0.51759,-1.59744 0.16537,-2.19106 -1.18905,-2.00396 -4.09243,-2.6749 -6.36647,-3.18323 -4.58588,-1.02512 -9.48268,-0.51187 -14.13851,0.12402 z"
     id="path3-3"
     sodipodi:nodetypes="ssssssss" /><path
     style="opacity:0.99;fill:#808080;stroke:#000000;stroke-width:0"
     d="m 153.95594,42.224265 c -8.35732,-0.0606 -16.88047,0.33181 -26.60138,-0.0585 -0.64846,-0.026 -1.33469,0.81444 -1.28622,1.46161 0.36895,4.92543 0.96487,9.86296 1.46162,14.14843 0.0747,0.64468 0.63723,1.45947 1.28622,1.46161 8.61407,0.0285 15.86084,0.0544 23.56122,0.0585 0.64781,3.5e-4 1.38009,-0.69727 1.40315,-1.34468 0.16481,-4.62808 1.00691,-9.97403 1.34468,-14.38228 0.0454,-0.59225 -0.57531,-1.34038 -1.16929,-1.34469 z"
     id="path9-4"
     sodipodi:nodetypes="sssssssss" /><path
     style="opacity:0.99;fill:#808080;stroke:#000000;stroke-width:0.1;stroke-dasharray:none"
     d="m 136.64113,11.392215 c 1.28113,-0.26068 2.53821,1.81182 3.84469,1.86033 1.45403,0.054 2.22462,-1.82898 3.67932,-1.86032 1.45861,-0.0314 2.38828,1.97275 2.89384,4.63015 0.17329,0.7681 1.60964,4.15085 1.15754,4.79552 -1.47264,2.09992 -4.95922,2.05136 -7.524,2.06704 -2.62746,0.0161 -7.24506,0.1634 -7.60669,-2.43911 -0.26539,-1.90996 0.764,-3.19432 1.15754,-5.20893 0.26601,-1.36176 1.03813,-3.56802 2.39776,-3.84468 z"
     id="path2-11"
     sodipodi:nodetypes="sssssssss" /><path
     style="opacity:0.99;fill:#ff0000;fill-opacity:1;stroke:#000000;stroke-width:0.1;stroke-dasharray:none;stroke-opacity:1"
     d="m 133.05099,19.677665 c 0,0 3.28768,0.98732 4.99071,1.11788 2.36536,0.18134 4.81786,0.31129 7.11067,-0.29765 1.04364,-0.27717 2.87735,-1.48829 2.87735,-1.48829 0,0 -1.88395,1.29378 -2.91581,1.50393 -3.02021,0.61511 -6.40037,0.56987 -9.50196,-0.12129 -1.2867,-0.28673 -2.60785,-0.75022 -2.57478,-0.72508 z"
     id="path13-7"
     sodipodi:nodetypes="ssscssss" /><g
     inkscape:label="Plast 1"
     inkscape:groupmode="layer"
     id="layer1"
     transform="translate(-16.157391,-103.32605)"><path
       style="opacity:0.99;fill:#333333;stroke:#000000;stroke-width:0"
       d="m 56.966879,135.82969 c 1.880937,0.45351 4.317587,1.55522 6.174853,2.46823 1.106118,0.54376 1.628699,1.99096 2.104724,3.12786 1.770666,4.22892 3.869476,9.02114 4.794093,13.85611 0.22571,1.18026 0.241471,2.65475 -0.467717,3.6248 -0.57611,0.78803 -1.567049,1.46359 -2.543208,1.46161 -10.920517,-0.0222 -24.425982,-0.32052 -35.721849,-0.11693 -1.160136,0.0209 -2.389316,-0.73486 -3.040158,-1.69547 -0.595223,-0.87851 -0.718415,-2.14195 -0.409252,-3.15709 1.351684,-4.43829 2.909247,-10.05135 5.261811,-14.49921 0.550706,-1.04119 1.280821,-2.03916 2.221653,-2.74783 1.757833,-1.32405 3.937339,-2.04708 6.097135,-2.46941 5.451438,-1.06597 10.12797,-1.15461 15.527915,0.14735 z"
       id="path10"
       sodipodi:nodetypes="ssssssssssssss" /><path
       style="opacity:0.99;fill:#000000;stroke:#000000;stroke-width:0"
       d="m 68.250913,154.64358 c 0,0 -1.199877,-0.85921 -1.791811,-1.08941 -1.075367,-0.41822 -2.067882,-0.29769 -3.015081,-0.10404 -0.509025,0.10407 -1.618985,0.73733 -1.618985,0.73733 l 0.318118,0.55591 c 0,0 0.849035,-0.87159 1.332235,-1.02302 0.808538,-0.25337 1.729577,-0.25005 2.665477,-0.0357 0.688987,0.15782 2.110082,0.959 2.110082,0.959 z"
       id="path8-2"
       sodipodi:nodetypes="cssccsscc" /><path
       style="opacity:0.99;fill:#4d4d4d;stroke:#000000;stroke-width:0"
       d="m 42.797949,129.94412 c 0,0 -0.956483,0.28448 -1.291894,0.64079 -0.312841,0.33233 -0.736614,1.06459 -0.930167,1.47793 -0.370058,0.79028 -0.706206,1.56513 -0.888825,2.41843 -0.115498,0.53968 -0.08268,1.65363 -0.08268,1.65363 0,0 0.615279,-0.14638 1.229885,-0.0517 0.640261,0.0986 0.968781,0.61834 1.457258,1.04385 0.433558,0.37767 0.58792,0.69674 1.074858,1.00251 0.708905,0.44516 1.676072,0.8062 2.449439,1.12654 0.364568,0.15101 0.71649,0.35843 1.04385,0.57877 0.736006,0.49539 1.345309,1.72265 2.232398,1.73631 0.9177,0.0141 1.21742,-1.20688 1.994687,-1.69497 0.899508,-0.56485 1.87084,-0.95254 2.821503,-1.42626 0.541563,-0.26986 1.145756,-0.47899 1.570947,-0.90949 0.35553,-0.35997 0.472449,-0.8273 0.875678,-1.13289 0.418206,-0.31694 0.779662,-0.42311 1.295746,-0.32822 0.263153,0.0484 0.763766,0.22089 0.763766,0.22089 0,0 0.0996,-1.12399 -0.0071,-1.68035 -0.206837,-1.07862 -0.52049,-2.22929 -1.109106,-3.15651 -0.261324,-0.41165 -0.656662,-0.74146 -1.074857,-0.99218 -0.287808,-0.17255 -1.023917,-0.53535 -1.023917,-0.53535 0,0 -0.480363,2.88519 -1.332504,3.88395 -1.146006,1.34319 -2.824941,2.7248 -4.588817,2.6458 -1.867621,-0.0837 -3.27921,-1.89042 -4.588814,-3.22457 -0.896921,-0.91373 -1.89134,-3.29693 -1.89134,-3.29693 z"
       id="path7"
       sodipodi:nodetypes="cssscssssssssssscssscsssc" /><path
       style="color:#000000;font-style:normal;font-variant:normal;font-weight:normal;font-stretch:normal;font-size:medium;line-height:normal;font-family:sans-serif;font-variant-ligatures:normal;font-variant-position:normal;font-variant-caps:normal;font-variant-numeric:normal;font-variant-alternates:normal;font-variant-east-asian:normal;font-feature-settings:normal;font-variation-settings:normal;text-indent:0;text-align:start;text-decoration-line:none;text-decoration-style:solid;text-decoration-color:#000000;letter-spacing:normal;word-spacing:normal;text-transform:none;writing-mode:lr-tb;direction:ltr;text-orientation:mixed;dominant-baseline:auto;baseline-shift:baseline;text-anchor:start;white-space:normal;shape-padding:0;shape-margin:0;inline-size:0;clip-rule:nonzero;display:inline;overflow:visible;visibility:visible;isolation:auto;mix-blend-mode:normal;color-interpolation:sRGB;color-interpolation-filters:linearRGB;solid-color:#000000;solid-opacity:1;vector-effect:none;fill:#ffccaa;fill-opacity:1;fill-rule:nonzero;stroke:none;stroke-linecap:butt;stroke-linejoin:miter;stroke-miterlimit:4;stroke-dasharray:none;stroke-dashoffset:0;stroke-opacity:1;-inkscape-stroke:none;color-rendering:auto;image-rendering:auto;shape-rendering:auto;text-rendering:auto;enable-background:accumulate;stop-color:#000000;stop-opacity:1"
       d="m 42.403589,129.24109 c 0,0 1.098864,3.8875 2.315079,5.33295 1.090144,1.29561 2.494426,2.39868 4.423454,2.85251 1.635569,-0.21527 3.664913,-2.07987 4.795521,-3.43128 1.152933,-1.3781 1.488264,-4.58882 1.488264,-4.58882 0,0 -3.741851,0.63622 -5.870379,0.62011 -2.228161,-0.0169 -7.151939,-0.78547 -7.151939,-0.78547 z"
       id="path4"
       sodipodi:nodetypes="cscscsc" /><path
       style="opacity:0.99;fill:#000000;fill-opacity:1;stroke:#000000;stroke-width:0"
       d="m 42.951405,129.29079 c 0,0 0.539061,1.4146 1.28156,2.14972 0.46534,0.46072 1.916202,0.77941 2.645805,0.37207 0.306288,-0.171 0.831842,-0.98592 1.157539,-1.11621 0.524733,-0.2099 1.123579,-0.23747 1.653629,-0.0414 0.633814,0.23448 1.01251,0.94385 1.653626,1.15755 0.641115,0.2137 1.881812,0.23089 2.521783,-0.33074 0.68773,-0.60355 1.24022,-2.04636 1.24022,-2.04636 0,0 -3.935483,0.37817 -6.07708,0.43408 -1.938732,0.0506 -6.077082,-0.57873 -6.077082,-0.57873 z"
       id="path5"
       sodipodi:nodetypes="csssssscscc" /><path
       style="opacity:0.99;fill:#000000;fill-opacity:1;stroke:#000000;stroke-width:0;stroke-opacity:1"
       d="m 46.703481,133.68901 c 0,0 0.44625,0.38516 0.806143,0.54777 0.29681,0.1341 1.038606,0.2417 1.364243,0.24803 0.511468,0.01 0.850051,-0.0593 1.333238,-0.22736 0.342672,-0.11915 0.806145,-0.64079 0.806145,-0.64079 0,0 -0.689464,0.44941 -1.033519,0.54777 -0.378028,0.10808 -0.588672,0.15725 -0.98184,0.15502 -0.386854,-0.002 -0.966413,-0.0425 -1.333237,-0.16536 -0.378549,-0.12681 -0.961173,-0.46508 -0.961173,-0.46508 z"
       id="path6"
       sodipodi:nodetypes="cssscsssc" /><path
       style="opacity:0.99;fill:#000000;stroke:#000000;stroke-width:0"
       d="m 30.050787,154.30261 c 0,0 0.720634,-0.6602 1.169292,-0.81851 0.81508,-0.2876 1.725299,-0.24205 2.587056,-0.17539 0.463125,0.0358 1.637009,0.43849 1.637009,0.43849 l -0.130505,0.33115 c 0,0 -0.951098,-0.45719 -1.404187,-0.52117 -0.75815,-0.10706 -1.547077,-0.0628 -2.294734,0.10232 -0.550404,0.12155 -1.563931,0.64311 -1.563931,0.64311 z"
       id="path8"
       sodipodi:nodetypes="cssccssc" /><path
       style="color:#000000;font-style:normal;font-variant:normal;font-weight:normal;font-stretch:normal;font-size:medium;line-height:normal;font-family:sans-serif;font-variant-ligatures:normal;font-variant-position:normal;font-variant-caps:normal;font-variant-numeric:normal;font-variant-alternates:normal;font-variant-east-asian:normal;font-feature-settings:normal;font-variation-settings:normal;text-indent:0;text-align:start;text-decoration-line:none;text-decoration-style:solid;text-decoration-color:#000000;letter-spacing:normal;word-spacing:normal;text-transform:none;writing-mode:lr-tb;direction:ltr;text-orientation:mixed;dominant-baseline:auto;baseline-shift:baseline;text-anchor:start;white-space:normal;shape-padding:0;shape-margin:0;inline-size:0;clip-rule:nonzero;display:inline;overflow:visible;visibility:visible;isolation:auto;mix-blend-mode:normal;color-interpolation:sRGB;color-interpolation-filters:linearRGB;solid-color:#000000;solid-opacity:1;fill:#ffffff;fill-opacity:1;fill-rule:nonzero;stroke:#000000;stroke-width:0.1;stroke-linecap:butt;stroke-linejoin:miter;stroke-miterlimit:4;stroke-dasharray:none;stroke-dashoffset:0;stroke-opacity:1;color-rendering:auto;image-rendering:auto;shape-rendering:auto;text-rendering:auto;enable-background:accumulate;stop-color:#000000;stop-opacity:1"
       d="m 41.676948,121.46613 c -1.374736,0.18776 -2.961665,0.7673 -4.340773,1.48827 -1.263585,0.66058 -2.609909,1.67491 -1.943015,2.93518 1.792008,3.38645 8.969183,4.07437 13.60109,4.13407 4.532984,0.0584 10.125754,-0.76421 13.022314,-3.30725 0.51871,-0.4554 0.51759,-1.59744 0.16537,-2.19106 -1.18905,-2.00396 -4.09243,-2.6749 -6.36647,-3.18323 -4.585881,-1.02512 -9.482682,-0.51187 -14.138516,0.12402 z"
       id="path3"
       sodipodi:nodetypes="ssssssss" /><path
       style="opacity:0.99;fill:#808080;stroke:#000000;stroke-width:0"
       d="m 62.381693,145.5183 c -8.357325,-0.0606 -16.880473,0.33181 -26.601378,-0.0585 -0.648466,-0.026 -1.334699,0.81444 -1.286221,1.46161 0.368944,4.92543 0.96487,9.86296 1.461614,14.14843 0.07473,0.64468 0.637236,1.45947 1.286221,1.46161 8.614067,0.0285 15.860846,0.0544 23.56122,0.0585 0.647816,3.5e-4 1.380094,-0.69727 1.403149,-1.34468 0.164808,-4.62808 1.006911,-9.97403 1.344686,-14.38228 0.04538,-0.59225 -0.575316,-1.34038 -1.169291,-1.34469 z"
       id="path9"
       sodipodi:nodetypes="sssssssss" /><path
       style="opacity:0.99;fill:#ffffff;stroke:#000000;stroke-width:0.1;stroke-dasharray:none"
       d="m 45.066884,114.68625 c 1.281128,-0.26068 2.538204,1.81182 3.844684,1.86033 1.454036,0.054 2.224622,-1.82898 3.679321,-1.86032 1.458615,-0.0314 2.388285,1.97275 2.893845,4.63015 0.17329,0.7681 1.60964,4.15085 1.15754,4.79552 -1.47264,2.09992 -4.959224,2.05136 -7.524003,2.06704 -2.627461,0.0161 -7.24506,0.1634 -7.606686,-2.43911 -0.265394,-1.90996 0.763998,-3.19432 1.157537,-5.20893 0.266011,-1.36176 1.038125,-3.56802 2.397762,-3.84468 z"
       id="path2"
       sodipodi:nodetypes="sssssssss" /><path
       style="opacity:0.99;fill:#ffffff;fill-opacity:1;stroke:#ffffff;stroke-width:0.1;stroke-dasharray:none;stroke-opacity:1"
       d="m 44.137075,120.94371 1.076706,0.33069 8.201123,-0.1913 0.533262,-0.16922 z"
       id="path12"
       sodipodi:nodetypes="ccccc" /><rect
       style="opacity:0.99;fill:#ffffff;fill-opacity:1;stroke:#ffffff;stroke-width:0.1;stroke-dasharray:none;stroke-opacity:1"
       id="rect12"
       width="7.8109517"
       height="0.3975634"
       x="45.743179"
       y="120.46172" /><path
       style="opacity:0.99;fill:#ff0000;fill-opacity:1;stroke:#000000;stroke-width:0.1;stroke-dasharray:none;stroke-opacity:1"
       d="m 41.47674,122.9717 c 0,0 3.287684,0.98732 4.990707,1.11788 2.36536,0.18134 4.81786,0.31129 7.110677,-0.29765 1.043641,-0.27717 2.877344,-1.48829 2.877344,-1.48829 0,0 -1.883948,1.29378 -2.915806,1.50393 -3.020214,0.61511 -6.400374,0.56987 -9.501958,-0.12129 -1.286701,-0.28673 -2.607851,-0.75022 -2.574785,-0.72508 z"
       id="path13"
       sodipodi:nodetypes="ssscssss" /><path
       style="opacity:0.99;fill:#333333;stroke:#000000;stroke-width:0"
       d="m 110.5813,135.92369 c 1.88093,0.45351 4.31758,1.55522 6.17485,2.46823 1.10612,0.54376 1.6287,1.99096 2.10472,3.12786 1.77067,4.22892 3.86948,9.02114 4.7941,13.85611 0.22571,1.18026 0.24147,2.65475 -0.46772,3.6248 -0.57611,0.78803 -1.56705,1.46359 -2.54321,1.46161 -10.92052,-0.0222 -24.425981,-0.32052 -35.721848,-0.11693 -1.160136,0.0209 -2.389316,-0.73486 -3.040158,-1.69547 -0.595223,-0.87851 -0.718415,-2.14195 -0.409252,-3.15709 1.351684,-4.43829 2.909247,-10.05135 5.261811,-14.49921 0.550706,-1.04119 1.280821,-2.03916 2.221653,-2.74783 1.757833,-1.32405 3.937339,-2.04708 6.097135,-2.46941 5.451439,-1.06597 10.127969,-1.15461 15.527919,0.14735 z"
       id="path10-4"
       sodipodi:nodetypes="ssssssssssssss" /><path
       style="opacity:0.99;fill:#000000;stroke:#000000;stroke-width:0"
       d="m 121.86533,154.73758 c 0,0 -1.19988,-0.85921 -1.79181,-1.08941 -1.07537,-0.41822 -2.06788,-0.29769 -3.01508,-0.10404 -0.50903,0.10407 -1.61899,0.73733 -1.61899,0.73733 l 0.31812,0.55591 c 0,0 0.84904,-0.87159 1.33224,-1.02302 0.80853,-0.25337 1.72957,-0.25005 2.66547,-0.0357 0.68899,0.15782 2.11009,0.959 2.11009,0.959 z"
       id="path8-2-2"
       sodipodi:nodetypes="cssccsscc" /><path
       style="opacity:0.99;fill:#4d4d4d;stroke:#000000;stroke-width:0"
       d="m 96.412366,130.03812 c 0,0 -0.956483,0.28448 -1.291894,0.64079 -0.312841,0.33233 -0.736614,1.06459 -0.930167,1.47793 -0.370058,0.79028 -0.706206,1.56513 -0.888825,2.41843 -0.115498,0.53968 -0.08268,1.65363 -0.08268,1.65363 0,0 0.615279,-0.14638 1.229885,-0.0517 0.640261,0.0986 0.968781,0.61834 1.457258,1.04385 0.433558,0.37767 0.58792,0.69674 1.074858,1.00251 0.708905,0.44516 1.676072,0.8062 2.449439,1.12654 0.364568,0.15101 0.71649,0.35843 1.04385,0.57877 0.73601,0.49539 1.34531,1.72265 2.2324,1.73631 0.9177,0.0141 1.21742,-1.20688 1.99469,-1.69497 0.8995,-0.56485 1.87084,-0.95254 2.8215,-1.42626 0.54156,-0.26986 1.14575,-0.47899 1.57095,-0.90949 0.35553,-0.35997 0.47244,-0.8273 0.87567,-1.13289 0.41821,-0.31694 0.77967,-0.42311 1.29575,-0.32822 0.26315,0.0484 0.76377,0.22089 0.76377,0.22089 0,0 0.0996,-1.12399 -0.007,-1.68035 -0.20684,-1.07862 -0.52049,-2.22929 -1.10911,-3.15651 -0.26132,-0.41165 -0.65666,-0.74146 -1.07486,-0.99218 -0.28781,-0.17255 -1.02391,-0.53535 -1.02391,-0.53535 0,0 -0.48037,2.88519 -1.33251,3.88395 -1.146,1.34319 -2.82494,2.7248 -4.58882,2.6458 -1.86762,-0.0837 -3.279206,-1.89042 -4.58881,-3.22457 -0.896921,-0.91373 -1.89134,-3.29693 -1.89134,-3.29693 z"
       id="path7-3"
       sodipodi:nodetypes="cssscssssssssssscssscsssc" /><path
       style="color:#000000;font-style:normal;font-variant:normal;font-weight:normal;font-stretch:normal;font-size:medium;line-height:normal;font-family:sans-serif;font-variant-ligatures:normal;font-variant-position:normal;font-variant-caps:normal;font-variant-numeric:normal;font-variant-alternates:normal;font-variant-east-asian:normal;font-feature-settings:normal;font-variation-settings:normal;text-indent:0;text-align:start;text-decoration-line:none;text-decoration-style:solid;text-decoration-color:#000000;letter-spacing:normal;word-spacing:normal;text-transform:none;writing-mode:lr-tb;direction:ltr;text-orientation:mixed;dominant-baseline:auto;baseline-shift:baseline;text-anchor:start;white-space:normal;shape-padding:0;shape-margin:0;inline-size:0;clip-rule:nonzero;display:inline;overflow:visible;visibility:visible;isolation:auto;mix-blend-mode:normal;color-interpolation:sRGB;color-interpolation-filters:linearRGB;solid-color:#000000;solid-opacity:1;vector-effect:none;fill:#ffccaa;fill-opacity:1;fill-rule:nonzero;stroke:none;stroke-linecap:butt;stroke-linejoin:miter;stroke-miterlimit:4;stroke-dasharray:none;stroke-dashoffset:0;stroke-opacity:1;-inkscape-stroke:none;color-rendering:auto;image-rendering:auto;shape-rendering:auto;text-rendering:auto;enable-background:accumulate;stop-color:#000000"
       d="m 96.018006,129.33509 c 0,0 1.098864,3.8875 2.315079,5.33295 1.090144,1.29561 2.494425,2.39868 4.423455,2.85251 1.63557,-0.21527 3.66491,-2.07987 4.79552,-3.43128 1.15293,-1.3781 1.48826,-4.58882 1.48826,-4.58882 0,0 -3.74185,0.63622 -5.87037,0.62011 -2.22817,-0.0169 -7.151944,-0.78547 -7.151944,-0.78547 z"
       id="path4-2"
       sodipodi:nodetypes="cscscsc" /><path
       style="opacity:0.99;fill:#000000;fill-opacity:1;stroke:#000000;stroke-width:0"
       d="m 96.565822,129.38479 c 0,0 0.539061,1.4146 1.28156,2.14972 0.46534,0.46072 1.916202,0.77941 2.645808,0.37207 0.30629,-0.171 0.83184,-0.98592 1.15754,-1.11621 0.52473,-0.2099 1.12358,-0.23747 1.65363,-0.0414 0.63381,0.23448 1.01251,0.94385 1.65362,1.15755 0.64112,0.2137 1.88181,0.23089 2.52178,-0.33074 0.68773,-0.60355 1.24022,-2.04636 1.24022,-2.04636 0,0 -3.93548,0.37817 -6.07708,0.43408 -1.93873,0.0506 -6.077078,-0.57873 -6.077078,-0.57873 z"
       id="path5-2"
       sodipodi:nodetypes="csssssscscc" /><path
       style="opacity:0.99;fill:#000000;fill-opacity:1;stroke:#000000;stroke-width:0;stroke-opacity:1"
       d="m 100.3179,133.78301 c 0,0 0.44625,0.38516 0.80614,0.54777 0.29681,0.1341 1.03861,0.2417 1.36424,0.24803 0.51147,0.01 0.85006,-0.0593 1.33324,-0.22736 0.34267,-0.11915 0.80615,-0.64079 0.80615,-0.64079 0,0 -0.68947,0.44941 -1.03352,0.54777 -0.37803,0.10808 -0.58867,0.15725 -0.98184,0.15502 -0.38686,-0.002 -0.96641,-0.0425 -1.33324,-0.16536 -0.37855,-0.12681 -0.96117,-0.46508 -0.96117,-0.46508 z"
       id="path6-1"
       sodipodi:nodetypes="cssscsssc" /><path
       style="opacity:0.99;fill:#000000;stroke:#000000;stroke-width:0"
       d="m 83.665204,154.39661 c 0,0 0.720634,-0.6602 1.169292,-0.81851 0.81508,-0.2876 1.725299,-0.24205 2.587056,-0.17539 0.463125,0.0358 1.637009,0.43849 1.637009,0.43849 l -0.130505,0.33115 c 0,0 -0.951098,-0.45719 -1.404187,-0.52117 -0.75815,-0.10706 -1.547077,-0.0628 -2.294734,0.10232 -0.550404,0.12155 -1.563931,0.64311 -1.563931,0.64311 z"
       id="path8-6"
       sodipodi:nodetypes="cssccssc" /><path
       style="color:#000000;font-style:normal;font-variant:normal;font-weight:normal;font-stretch:normal;font-size:medium;line-height:normal;font-family:sans-serif;font-variant-ligatures:normal;font-variant-position:normal;font-variant-caps:normal;font-variant-numeric:normal;font-variant-alternates:normal;font-variant-east-asian:normal;font-feature-settings:normal;font-variation-settings:normal;text-indent:0;text-align:start;text-decoration-line:none;text-decoration-style:solid;text-decoration-color:#000000;letter-spacing:normal;word-spacing:normal;text-transform:none;writing-mode:lr-tb;direction:ltr;text-orientation:mixed;dominant-baseline:auto;baseline-shift:baseline;text-anchor:start;white-space:normal;shape-padding:0;shape-margin:0;inline-size:0;clip-rule:nonzero;display:inline;overflow:visible;visibility:visible;isolation:auto;mix-blend-mode:normal;color-interpolation:sRGB;color-interpolation-filters:linearRGB;solid-color:#000000;solid-opacity:1;fill:#000000;fill-opacity:1;fill-rule:nonzero;stroke:#000000;stroke-width:0.1;stroke-linecap:butt;stroke-linejoin:miter;stroke-miterlimit:4;stroke-dasharray:none;stroke-dashoffset:0;stroke-opacity:1;color-rendering:auto;image-rendering:auto;shape-rendering:auto;text-rendering:auto;enable-background:accumulate;stop-color:#000000"
       d="m 95.291365,121.56013 c -1.374736,0.18776 -2.961665,0.7673 -4.340773,1.48827 -1.263585,0.66058 -2.609909,1.67491 -1.943015,2.93518 1.792008,3.38645 8.969183,4.07437 13.601093,4.13407 4.53298,0.0584 10.12575,-0.76421 13.02231,-3.30725 0.51871,-0.4554 0.51759,-1.59744 0.16537,-2.19106 -1.18905,-2.00396 -4.09243,-2.6749 -6.36647,-3.18323 -4.58588,-1.02512 -9.482681,-0.51187 -14.138515,0.12402 z"
       id="path3-8"
       sodipodi:nodetypes="ssssssss" /><path
       style="opacity:0.99;fill:#808080;stroke:#000000;stroke-width:0"
       d="m 115.99611,145.6123 c -8.35732,-0.0606 -16.880473,0.33181 -26.601378,-0.0585 -0.648466,-0.026 -1.334699,0.81444 -1.286221,1.46161 0.368944,4.92543 0.96487,9.86296 1.461614,14.14843 0.07473,0.64468 0.637236,1.45947 1.286221,1.46161 8.614067,0.0285 15.860844,0.0544 23.561224,0.0585 0.64781,3.5e-4 1.38009,-0.69727 1.40315,-1.34468 0.1648,-4.62808 1.00691,-9.97403 1.34468,-14.38228 0.0454,-0.59225 -0.57531,-1.34038 -1.16929,-1.34469 z"
       id="path9-5"
       sodipodi:nodetypes="sssssssss" /><path
       style="opacity:0.99;fill:#000000;fill-opacity:1;stroke:#000000;stroke-width:0.1;stroke-dasharray:none"
       d="m 98.681301,114.78025 c 1.281128,-0.26068 2.538209,1.81182 3.844689,1.86033 1.45403,0.054 2.22462,-1.82898 3.67932,-1.86032 1.45861,-0.0314 2.38828,1.97275 2.89384,4.63015 0.17329,0.7681 1.60964,4.15085 1.15754,4.79552 -1.47264,2.09992 -4.95922,2.05136 -7.524,2.06704 -2.62746,0.0161 -7.245062,0.1634 -7.606688,-2.43911 -0.265394,-1.90996 0.763998,-3.19432 1.157537,-5.20893 0.266011,-1.36176 1.038125,-3.56802 2.397762,-3.84468 z"
       id="path2-7"
       sodipodi:nodetypes="sssssssss" /><path
       style="opacity:0.99;fill:#ff0000;fill-opacity:1;stroke:#000000;stroke-width:0.1;stroke-dasharray:none;stroke-opacity:1"
       d="m 95.091157,123.0657 c 0,0 3.287684,0.98732 4.990703,1.11788 2.36536,0.18134 4.81786,0.31129 7.11068,-0.29765 1.04364,-0.27717 2.87735,-1.48829 2.87735,-1.48829 0,0 -1.88395,1.29378 -2.91581,1.50393 -3.02021,0.61511 -6.40037,0.56987 -9.501959,-0.12129 -1.286701,-0.28673 -2.607851,-0.75022 -2.574785,-0.72508 z"
       id="path13-8"
       sodipodi:nodetypes="ssscssss" /></g></svg>
